<mxfile host="Electron" agent="Mozilla/5.0 (Windows NT 10.0; Win64; x64) AppleWebKit/537.36 (KHTML, like Gecko) draw.io/24.7.17 Chrome/128.0.6613.36 Electron/32.0.1 Safari/537.36" version="24.7.17">
  <diagram name="Page-1" id="-H_mtQnk-PTXWXPvYvuk">
    <mxGraphModel dx="1221" dy="823" grid="1" gridSize="10" guides="1" tooltips="1" connect="1" arrows="1" fold="1" page="1" pageScale="1" pageWidth="1169" pageHeight="827" math="0" shadow="0">
      <root>
        <mxCell id="0" />
        <mxCell id="1" parent="0" />
        <mxCell id="zA23MoTUsTF4_91t8viU-2" value="shard1 port&amp;nbsp;27018&amp;nbsp;" style="shape=cylinder3;whiteSpace=wrap;html=1;boundedLbl=1;backgroundOutline=1;size=15;" parent="1" vertex="1">
          <mxGeometry x="730" y="240" width="190" height="60" as="geometry" />
        </mxCell>
        <mxCell id="zA23MoTUsTF4_91t8viU-3" value="&lt;div&gt;Приложение&lt;/div&gt;pymongo-api" style="rounded=1;whiteSpace=wrap;html=1;" parent="1" vertex="1">
          <mxGeometry x="360" y="290" width="120" height="60" as="geometry" />
        </mxCell>
        <mxCell id="zA23MoTUsTF4_91t8viU-4" style="edgeStyle=orthogonalEdgeStyle;rounded=0;orthogonalLoop=1;jettySize=auto;html=1;exitX=1;exitY=0.5;exitDx=0;exitDy=0;" parent="1" source="zA23MoTUsTF4_91t8viU-3" edge="1">
          <mxGeometry relative="1" as="geometry">
            <mxPoint x="580" y="320" as="targetPoint" />
          </mxGeometry>
        </mxCell>
        <mxCell id="EVqmkzgLorPPxyNyWxAq-1" value="" style="edgeStyle=orthogonalEdgeStyle;rounded=0;orthogonalLoop=1;jettySize=auto;html=1;" edge="1" parent="1" source="owCK5AHuxcXXN9G-xscD-1" target="zA23MoTUsTF4_91t8viU-3">
          <mxGeometry relative="1" as="geometry" />
        </mxCell>
        <mxCell id="owCK5AHuxcXXN9G-xscD-1" value="Роутер&lt;div&gt;mongos_router&lt;br&gt;&lt;div&gt;port&amp;nbsp;27020&lt;/div&gt;&lt;/div&gt;" style="rounded=1;whiteSpace=wrap;html=1;" parent="1" vertex="1">
          <mxGeometry x="540" y="290" width="110" height="60" as="geometry" />
        </mxCell>
        <mxCell id="owCK5AHuxcXXN9G-xscD-2" value="Сервис конфигурации&lt;div&gt;configSrv&lt;br&gt;&lt;div&gt;port&amp;nbsp;27017&lt;/div&gt;&lt;/div&gt;" style="rounded=1;whiteSpace=wrap;html=1;" parent="1" vertex="1">
          <mxGeometry x="550" y="160" width="90" height="60" as="geometry" />
        </mxCell>
        <mxCell id="owCK5AHuxcXXN9G-xscD-3" style="edgeStyle=orthogonalEdgeStyle;rounded=0;orthogonalLoop=1;jettySize=auto;html=1;exitX=0.5;exitY=0;exitDx=0;exitDy=0;entryX=1;entryY=0.5;entryDx=0;entryDy=0;exitPerimeter=0;" parent="1" source="zA23MoTUsTF4_91t8viU-2" target="owCK5AHuxcXXN9G-xscD-2" edge="1">
          <mxGeometry relative="1" as="geometry">
            <mxPoint x="620" y="240" as="sourcePoint" />
            <mxPoint x="720" y="240" as="targetPoint" />
          </mxGeometry>
        </mxCell>
        <mxCell id="owCK5AHuxcXXN9G-xscD-4" style="edgeStyle=orthogonalEdgeStyle;rounded=0;orthogonalLoop=1;jettySize=auto;html=1;exitX=0.5;exitY=1;exitDx=0;exitDy=0;entryX=0.5;entryY=0;entryDx=0;entryDy=0;" parent="1" source="owCK5AHuxcXXN9G-xscD-2" target="owCK5AHuxcXXN9G-xscD-1" edge="1">
          <mxGeometry relative="1" as="geometry">
            <mxPoint x="750" y="290" as="sourcePoint" />
            <mxPoint x="670" y="200" as="targetPoint" />
          </mxGeometry>
        </mxCell>
        <mxCell id="owCK5AHuxcXXN9G-xscD-5" style="edgeStyle=orthogonalEdgeStyle;rounded=0;orthogonalLoop=1;jettySize=auto;html=1;exitX=1;exitY=0.25;exitDx=0;exitDy=0;entryX=0;entryY=0.5;entryDx=0;entryDy=0;entryPerimeter=0;" parent="1" source="owCK5AHuxcXXN9G-xscD-1" target="zA23MoTUsTF4_91t8viU-2" edge="1">
          <mxGeometry relative="1" as="geometry">
            <mxPoint x="625" y="230" as="sourcePoint" />
            <mxPoint x="730" y="307.5" as="targetPoint" />
          </mxGeometry>
        </mxCell>
        <mxCell id="owCK5AHuxcXXN9G-xscD-7" style="edgeStyle=orthogonalEdgeStyle;rounded=0;orthogonalLoop=1;jettySize=auto;html=1;exitX=1;exitY=0.75;exitDx=0;exitDy=0;entryX=0;entryY=0;entryDx=0;entryDy=37.5;entryPerimeter=0;" parent="1" source="owCK5AHuxcXXN9G-xscD-1" target="owCK5AHuxcXXN9G-xscD-15" edge="1">
          <mxGeometry relative="1" as="geometry">
            <mxPoint x="660" y="315" as="sourcePoint" />
            <mxPoint x="730" y="481.5" as="targetPoint" />
          </mxGeometry>
        </mxCell>
        <mxCell id="owCK5AHuxcXXN9G-xscD-8" style="edgeStyle=orthogonalEdgeStyle;rounded=0;orthogonalLoop=1;jettySize=auto;html=1;exitX=1;exitY=0.5;exitDx=0;exitDy=0;entryX=1;entryY=0.25;entryDx=0;entryDy=0;exitPerimeter=0;" parent="1" source="owCK5AHuxcXXN9G-xscD-15" target="owCK5AHuxcXXN9G-xscD-2" edge="1">
          <mxGeometry relative="1" as="geometry">
            <mxPoint x="920" y="480" as="sourcePoint" />
            <mxPoint x="670" y="200" as="targetPoint" />
            <Array as="points">
              <mxPoint x="960" y="444" />
              <mxPoint x="960" y="175" />
            </Array>
          </mxGeometry>
        </mxCell>
        <mxCell id="owCK5AHuxcXXN9G-xscD-10" value="MongoDB ш&lt;span style=&quot;background-color: initial;&quot;&gt;ард 1&lt;/span&gt;" style="text;html=1;align=center;verticalAlign=middle;whiteSpace=wrap;rounded=0;" parent="1" vertex="1">
          <mxGeometry x="730" y="240" width="190" height="30" as="geometry" />
        </mxCell>
        <mxCell id="owCK5AHuxcXXN9G-xscD-15" value="shard2 port&amp;nbsp;27019" style="shape=cylinder3;whiteSpace=wrap;html=1;boundedLbl=1;backgroundOutline=1;size=15;" parent="1" vertex="1">
          <mxGeometry x="730" y="414" width="190" height="60" as="geometry" />
        </mxCell>
        <mxCell id="owCK5AHuxcXXN9G-xscD-16" value="MongoDB ш&lt;span style=&quot;background-color: initial;&quot;&gt;ард 2&lt;/span&gt;" style="text;html=1;align=center;verticalAlign=middle;whiteSpace=wrap;rounded=0;" parent="1" vertex="1">
          <mxGeometry x="730" y="414" width="190" height="30" as="geometry" />
        </mxCell>
      </root>
    </mxGraphModel>
  </diagram>
</mxfile>
